<?xml version="1.0" encoding="UTF-8" standalone="no"?>
<!-- Created with Inkscape (http://www.inkscape.org/) -->

<svg
   width="210mm"
   height="297mm"
   viewBox="0 0 210 297"
   version="1.1"
   id="svg5"
   xmlns="http://www.w3.org/2000/svg"
   xmlns:svg="http://www.w3.org/2000/svg">
  <defs
     id="defs2" />
  <g
     id="layer1">
    <path
       d="m 82.266306,95.318424 a 3.175,3.175 0 1 1 3.175,3.175 3.175,3.175 0 0 1 -3.175,-3.175 z m 17.991664,3.175 a 3.175,3.175 0 1 0 -3.174996,-3.175 3.175,3.175 0 0 0 3.174996,3.175 z m 15.875,2.116666 v 12.7 a 23.283334,23.283334 0 0 1 -46.566664,0 v -12.7 a 23.203514,23.203514 0 0 1 6.574147,-16.196946 l -3.760364,-3.39966 a 2.1166511,2.1166511 0 1 1 2.839101,-3.14012 l 4.156596,3.7579 a 23.239677,23.239677 0 0 1 26.947704,1.3e-4 l 4.1566,-3.75804 a 2.1166508,2.1166508 0 0 1 2.8391,3.14012 l -3.76024,3.3998 a 23.203887,23.203887 0 0 1 6.57402,16.196816 z m -42.33333,0 v 2.11666 h 38.1 v -2.11666 a 19.050002,19.050002 0 0 0 -38.1,0 z m 38.1,12.7 v -6.35 h -38.1 v 6.35 a 19.050002,19.050002 0 0 0 38.1,0 z"
       id="path114"
       style="stroke-width:0.264583" />
    <g
       id="g184"
       transform="matrix(0.04318964,0,0,0.04318964,82.281884,107.09302)">
      <g
         id="g128">
	<g
   id="g126">
		<path
   d="m 468.794,355.171 c -1.707,-1.718 -3.897,-2.57 -6.563,-2.57 H 188.145 c -2.664,0 -4.854,0.853 -6.567,2.57 -1.711,1.711 -2.565,3.897 -2.565,6.563 v 18.274 c 0,2.662 0.854,4.853 2.565,6.563 1.713,1.712 3.903,2.57 6.567,2.57 h 274.086 c 2.666,0 4.856,-0.858 6.563,-2.57 1.711,-1.711 2.567,-3.901 2.567,-6.563 v -18.274 c 0.004,-2.666 -0.848,-4.852 -2.567,-6.563 z"
   id="path122" />

		<path
   d="m 30.259,85.075 c -1.903,-1.903 -4.093,-2.856 -6.567,-2.856 -2.474,0 -4.661,0.953 -6.563,2.856 L 2.852,99.353 C 0.95,101.255 0,103.442 0,105.918 c 0,2.478 0.95,4.664 2.852,6.567 L 115.06,224.69 2.852,336.896 C 0.95,338.799 0,340.989 0,343.46 c 0,2.478 0.95,4.665 2.852,6.567 L 17.128,364.3 c 1.903,1.906 4.089,2.854 6.563,2.854 2.474,0 4.665,-0.951 6.567,-2.854 L 163.306,231.255 c 1.903,-1.902 2.853,-4.096 2.853,-6.57 0,-2.473 -0.95,-4.663 -2.853,-6.565 z"
   id="path124" />

	</g>

</g>
      <g
         id="g130">
</g>
      <g
         id="g132">
</g>
      <g
         id="g134">
</g>
      <g
         id="g136">
</g>
      <g
         id="g138">
</g>
      <g
         id="g140">
</g>
      <g
         id="g142">
</g>
      <g
         id="g144">
</g>
      <g
         id="g146">
</g>
      <g
         id="g148">
</g>
      <g
         id="g150">
</g>
      <g
         id="g152">
</g>
      <g
         id="g154">
</g>
      <g
         id="g156">
</g>
      <g
         id="g158">
</g>
    </g>
  </g>
</svg>
